<svg xmlns="http://www.w3.org/2000/svg" viewBox="0 0 180 40"><defs><style>.cls-1{fill:#ff5722;}</style></defs><g id="Layer_2" data-name="Layer 2"><g id="Layer_1-2" data-name="Layer 1"><g id="logo-orange"><rect class="cls-1" x="42.08" y="35.9" width="137.92" height="4.1"/><path class="cls-1" d="M0,40V36.86a5.39,5.39,0,0,0,2.46-.55,2.66,2.66,0,0,0,1.2-1.71A13.1,13.1,0,0,0,4,31.2V8.4c0-1,0-1.87.08-2.74S4.2,4.1,4.24,3.6c-.65,0-1.4.07-2.24.09s-1.5,0-2,.08V0H15.22V3.14a5.45,5.45,0,0,0-2.43.55,2.62,2.62,0,0,0-1.23,1.68,13.12,13.12,0,0,0-.34,3.43v9.09H28.5V8.4c0-1,0-1.87.06-2.74a19.67,19.67,0,0,1,.17-2.06c-.65,0-1.39.07-2.23.09s-1.51,0-2,.08V0H39.72V3.14a5.45,5.45,0,0,0-2.43.55,2.6,2.6,0,0,0-1.24,1.68,13.57,13.57,0,0,0-.34,3.43V31.49c0,1,0,2-.06,2.85a17.07,17.07,0,0,1-.17,2.06c.65,0,1.4-.08,2.26-.11s1.52-.06,2-.06V40H24.49V36.86A5.47,5.47,0,0,0,27,36.31a2.66,2.66,0,0,0,1.2-1.71,13.17,13.17,0,0,0,.34-3.4V21.54l-17.28.23v9.72c0,1,0,2-.06,2.85s-.1,1.57-.17,2.06c.65,0,1.39-.08,2.23-.11s1.51-.06,2-.06V40Z"/><path class="cls-1" d="M52.14,33.51a10.21,10.21,0,0,1-5.24-1.33,9.05,9.05,0,0,1-3.55-3.75,12.18,12.18,0,0,1-1.27-5.74,11.55,11.55,0,0,1,1.27-5.34,10.34,10.34,0,0,1,3.57-4A9.53,9.53,0,0,1,52.3,11.8a11.1,11.1,0,0,1,3.31.49,7.45,7.45,0,0,1,2.86,1.63,8,8,0,0,1,2,3,11.77,11.77,0,0,1,.71,4.57l-13.73.25a15.11,15.11,0,0,0,.59,4.46A6.19,6.19,0,0,0,50,29.29a5.44,5.44,0,0,0,3.56,1.12,7.2,7.2,0,0,0,2.1-.35A8.87,8.87,0,0,0,57.9,29a8.26,8.26,0,0,0,2-1.78l1.56,1.43a10.75,10.75,0,0,1-3,3,10.43,10.43,0,0,1-3.27,1.45A13.1,13.1,0,0,1,52.14,33.51Zm-4.46-14.2h8.5a8.1,8.1,0,0,0-.47-2.76,3.6,3.6,0,0,0-1.24-1.71,3.32,3.32,0,0,0-2-.6,4.16,4.16,0,0,0-3.21,1.33A7.08,7.08,0,0,0,47.68,19.31Z"/><path class="cls-1" d="M76.09,32.86a7,7,0,0,1-.14-1c0-.29,0-.62-.06-1a9.41,9.41,0,0,1-3,2,8.49,8.49,0,0,1-3.25.65A5.74,5.74,0,0,1,65.4,32a5.09,5.09,0,0,1-1.49-3.71A5.25,5.25,0,0,1,65,25a8.3,8.3,0,0,1,2.78-2.25,16.23,16.23,0,0,1,3.8-1.34,19.68,19.68,0,0,1,4.13-.51V18.61a8.8,8.8,0,0,0-.26-2.18,2.75,2.75,0,0,0-3-2.19,6.07,6.07,0,0,0-1.82.39,3.06,3.06,0,0,0-1.45,1.08,1.71,1.71,0,0,1,.41.8,4.57,4.57,0,0,1,.08.76,2.65,2.65,0,0,1-.57,1.53,2,2,0,0,1-1.84.75,2.18,2.18,0,0,1-1.7-.77A2.75,2.75,0,0,1,64.93,17a3.81,3.81,0,0,1,1.12-2.71,7.68,7.68,0,0,1,3-1.84,12.87,12.87,0,0,1,4.29-.67,7.42,7.42,0,0,1,5.4,1.83c1.25,1.23,1.87,3.19,1.84,5.88V22.1c0,.78,0,1.55,0,2.33s0,1.64,0,2.59c0,.41,0,.92,0,1.53s-.07,1.22-.13,1.82a14.72,14.72,0,0,1,1.5-.1c.5,0,.92,0,1.24-.07v2.66Zm-.45-9.59a13,13,0,0,0-2.41.38,9.28,9.28,0,0,0-2.13.84,4.47,4.47,0,0,0-1.49,1.33,2.85,2.85,0,0,0-.51,1.81,2.28,2.28,0,0,0,.82,1.86,2.9,2.9,0,0,0,1.8.59,4.59,4.59,0,0,0,2.14-.49,6.89,6.89,0,0,0,1.78-1.3v-5Z"/><path class="cls-1" d="M93.83,33.51a7.72,7.72,0,0,1-4.37-1.27,8.42,8.42,0,0,1-3-3.59,12.86,12.86,0,0,1-1.08-5.47,12.78,12.78,0,0,1,1.31-5.87,10,10,0,0,1,3.62-4,9.7,9.7,0,0,1,5.33-1.47,8.91,8.91,0,0,1,2.23.26,15,15,0,0,1,1.82.59V9c0-.41,0-.91,0-1.51s0-1.2.1-1.8l-1.49.09c-.56,0-1,0-1.41.08V3.22A21.1,21.1,0,0,0,100,3a8,8,0,0,0,1.86-.47,3.94,3.94,0,0,0,1-.53h1.88V27c0,.41,0,.92,0,1.53s-.06,1.22-.12,1.82a13.38,13.38,0,0,1,1.45-.1c.51,0,.94,0,1.29-.07v2.66h-7.11c-.06-.33-.1-.66-.15-1s-.08-.66-.14-1a8,8,0,0,1-2.78,2A8.3,8.3,0,0,1,93.83,33.51Zm1.92-3.14A4.19,4.19,0,0,0,98,29.73a5.42,5.42,0,0,0,1.72-1.57c0-.38,0-.77,0-1.16V25.8l0-10.45a4.37,4.37,0,0,0-1.56-.76,7.23,7.23,0,0,0-1.92-.26,4.38,4.38,0,0,0-3.12,1.2,6.78,6.78,0,0,0-1.76,3,13.35,13.35,0,0,0-.51,4.08,12.71,12.71,0,0,0,.53,3.76A6.82,6.82,0,0,0,93,29.27,3.77,3.77,0,0,0,95.75,30.37Z"/><path class="cls-1" d="M109.49,30.69a2,2,0,0,0,2.31-2,19.21,19.21,0,0,0,.1-2.12V9c0-.46,0-1,0-1.53s.07-1.14.12-1.74l-1.51.09c-.54,0-1,0-1.39.08V3.22A21.75,21.75,0,0,0,112.25,3a8.09,8.09,0,0,0,1.88-.47,3.94,3.94,0,0,0,1-.53h1.84l0,25c0,.44,0,1,0,1.57a16.78,16.78,0,0,1-.17,1.78,13.37,13.37,0,0,1,1.44-.1l1.22,0v2.62h-9.93Z"/><path class="cls-1" d="M122.28,30.69a2.28,2.28,0,0,0,1.68-.51,2.45,2.45,0,0,0,.61-1.45,16.76,16.76,0,0,0,.12-2.12V19c0-.46,0-1,0-1.53s.06-1.14.12-1.74l-1.51.09c-.55,0-1,0-1.35.08V13.22a21.18,21.18,0,0,0,3-.18,8,8,0,0,0,1.88-.47,3.94,3.94,0,0,0,1-.53h1.84V27c0,.44,0,1,0,1.57a14.58,14.58,0,0,1-.14,1.78,12,12,0,0,1,1.41-.1l1.25,0v2.62h-9.94ZM127,8.53a2.62,2.62,0,0,1-2-.88,3,3,0,0,1-.82-2.14A3.05,3.05,0,0,1,125,3.35a2.62,2.62,0,0,1,2-.9,2.55,2.55,0,0,1,2,.9,3.15,3.15,0,0,1,.79,2.16A3.14,3.14,0,0,1,129,7.65,2.55,2.55,0,0,1,127,8.53Z"/><path class="cls-1" d="M135,32.86V30.69a2.24,2.24,0,0,0,1.67-.51,2.52,2.52,0,0,0,.62-1.45,16.76,16.76,0,0,0,.12-2.12V18.94c0-.49,0-1,0-1.55s.07-1.1.12-1.68l-1.49.09c-.56,0-1,0-1.37.08V13.22a20.84,20.84,0,0,0,3-.18,7.69,7.69,0,0,0,1.84-.47,4.39,4.39,0,0,0,.94-.53h1.71a3.82,3.82,0,0,1,.08.74,4.15,4.15,0,0,0,.05.59q0,.3.12.87a9.9,9.9,0,0,1,1.9-1.24,12.69,12.69,0,0,1,2.19-.88,7.42,7.42,0,0,1,2-.32q3.67,0,5.27,2.16t1.6,6.9V27c0,.44,0,1,0,1.57a14.56,14.56,0,0,1-.15,1.78,13.37,13.37,0,0,1,1.43-.1l1.23,0v2.62h-9.93V30.69a2.32,2.32,0,0,0,1.69-.51,2.41,2.41,0,0,0,.64-1.45,16.76,16.76,0,0,0,.12-2.12l0-5.79a8.59,8.59,0,0,0-.88-4.39A3.11,3.11,0,0,0,146.73,15a6.09,6.09,0,0,0-2.33.57,6,6,0,0,0-1.92,1.35c0,.32,0,.67,0,1V19l0,8c0,.44,0,1,0,1.57a14.56,14.56,0,0,1-.15,1.78,12.31,12.31,0,0,1,1.41-.1l1.25,0v2.62Z"/><path class="cls-1" d="M170.4,33.51a10.21,10.21,0,0,1-5.24-1.33,9.05,9.05,0,0,1-3.55-3.75,12.18,12.18,0,0,1-1.27-5.74,11.55,11.55,0,0,1,1.27-5.34,10.34,10.34,0,0,1,3.57-4,9.53,9.53,0,0,1,5.38-1.53,11.1,11.1,0,0,1,3.31.49,7.45,7.45,0,0,1,2.86,1.63,8,8,0,0,1,2,3,11.77,11.77,0,0,1,.71,4.57l-13.73.25a15.11,15.11,0,0,0,.59,4.46,6.19,6.19,0,0,0,1.94,3.07,5.44,5.44,0,0,0,3.56,1.12,7.2,7.2,0,0,0,2.1-.35A8.71,8.71,0,0,0,176.16,29a8.26,8.26,0,0,0,2-1.78l1.56,1.43a10.75,10.75,0,0,1-3,3,10.43,10.43,0,0,1-3.27,1.45A13.1,13.1,0,0,1,170.4,33.51Zm-4.46-14.2h8.5a8.1,8.1,0,0,0-.47-2.76,3.6,3.6,0,0,0-1.24-1.71,3.32,3.32,0,0,0-2-.6,4.16,4.16,0,0,0-3.21,1.33A7.08,7.08,0,0,0,165.94,19.31Z"/></g></g></g></svg>