<svg xmlns="http://www.w3.org/2000/svg" viewBox="0 0 40 40"><defs><style>.cls-1{fill:#fafafa;}.cls-2{fill:#00adb5;}</style></defs><g id="Layer_2" data-name="Layer 2"><g id="Layer_1-2" data-name="Layer 1"><g id="favicon-green"><rect class="cls-1" x="2" y="2" width="36" height="36"/><path class="cls-2" d="M36,4V36H4V4H36m4-4H0V40H40V0Z"/><path class="cls-2" d="M8.08,32V30.11a3.29,3.29,0,0,0,1.48-.32,1.65,1.65,0,0,0,.72-1,7.76,7.76,0,0,0,.21-2V13c0-.57,0-1.12,0-1.65s.06-.93.09-1.23l-1.34.05c-.51,0-.91,0-1.21,0V8h9.14V9.89a3.33,3.33,0,0,0-1.46.32,1.58,1.58,0,0,0-.74,1,7.85,7.85,0,0,0-.2,2.06v5.45H25.18V13c0-.57,0-1.12,0-1.65s.06-.93.1-1.23L24,10.21c-.5,0-.9,0-1.2,0V8h9.14V9.89a3.33,3.33,0,0,0-1.46.32,1.58,1.58,0,0,0-.74,1,7.78,7.78,0,0,0-.21,2.06V26.89c0,.62,0,1.19,0,1.72s-.06.93-.11,1.23l1.36-.07,1.19,0V32H22.78V30.11a3.35,3.35,0,0,0,1.48-.32,1.65,1.65,0,0,0,.72-1,7.83,7.83,0,0,0,.2-2V20.93l-10.36.13v5.83c0,.62,0,1.19,0,1.72s-.06.93-.1,1.23L16,29.77l1.2,0V32Z"/></g></g></g></svg>